<svg xmlns="http://www.w3.org/2000/svg" viewBox="0 0 127 127"><defs><style>.cls-1{isolation:isolate;}.cls-2{mix-blend-mode:multiply;}.cls-3{fill:#32353d;}.cls-4{fill:#64bc31;}.cls-5{fill:#2d9b51;}.cls-6,.cls-7{fill:none;}.cls-6,.cls-7,.cls-9{stroke:#000;}.cls-10,.cls-6,.cls-7,.cls-9{stroke-linecap:round;stroke-linejoin:round;}.cls-6{stroke-width:4px;}.cls-7{stroke-width:2px;}.cls-8{opacity:0.36;}.cls-10{fill:#fff;stroke:#fff;}</style></defs><title>hulk</title><g class="cls-1"><g id="icons" class="cls-2"><g id="_Group_" data-name="&lt;Group&gt;"><path class="cls-3" d="M103.45,77.17v.25l-.96.02c-.12-1.31-2.27-22.49-14.27-35.19A12.193,12.193,0,0,0,86.5,48.5a10.671,10.671,0,0,1-6-8s-3.38,1.25-5,6c0,0-6-3-8-9-.81,5-6,7-6,7a7.369,7.369,0,0,0-4-5,9.863,9.863,0,0,1-4,7,10.547,10.547,0,0,0-5-6c-.88,5.69-6,9-6,9a11.914,11.914,0,0,0-3.1-5.76C27.27,57.81,24.5,79.5,24.5,79.5h-.99v-.06a.28.28,0,0,0-.01.06s-7-12,0-29c0,0-4,0-6,5,0,0,0-12,15-25,0,0-3-2-6-1,0,0,11-11,27-9a4.738,4.738,0,0,0-1-6s20-3,32,9c0,0,15,2,22,16a35.483,35.483,0,0,0-7-1s9,8,10,18c0,0-2-2-4-2,0,0,4,13-2,23C103.5,77.5,103.48,77.38,103.45,77.17Z"/><path class="cls-4" d="M103.45,77.42c.03,1.38.05,2.73.05,4.08,0,24.85-10,35-40,35s-40-10.15-40-35c0-.66,0-1.33.01-2h.99s2.77-21.69,14.9-35.76a11.914,11.914,0,0,1,3.1,5.76s5.12-3.31,6-9a10.547,10.547,0,0,1,5,6,9.863,9.863,0,0,0,4-7,7.369,7.369,0,0,1,4,5s5.19-2,6-7c2,6,8,9,8,9,1.62-4.75,5-6,5-6a10.671,10.671,0,0,0,6,8,12.193,12.193,0,0,1,1.72-6.25c12,12.7,14.15,33.88,14.27,35.19Z"/><path class="cls-5" d="M63.5,106.5c-28.366,0-38.846-9.08-39.9-31.078-.066,2.047-.1,4.08-.1,6.078,0,24.853,10,35,40,35s40-10.147,40-35c0-2-.03-4.03-.1-6.078C102.346,97.42,91.866,106.5,63.5,106.5Z"/><path class="cls-6" d="M103.45,77.42v-.25c.03.21.05.33.05.33,6-10,2-23,2-23,2,0,4,2,4,2-1-10-10-18-10-18a35.483,35.483,0,0,1,7,1c-7-14-22-16-22-16-12-12-32-9-32-9a4.738,4.738,0,0,1,1,6c-16-2-27,9-27,9,3-1,6,1,6,1-15,13-15,25-15,25,2-5,6-5,6-5-7,17,0,29,0,29a.28.28,0,0,1,.01-.06v.06c-.01.67-.01,1.34-.01,2,0,24.85,10,35,40,35s40-10.15,40-35C103.5,80.15,103.48,78.8,103.45,77.42Z"/><path class="cls-7" d="M24.5,79.5s2.77-21.69,14.9-35.76a11.914,11.914,0,0,1,3.1,5.76s5.12-3.31,6-9a10.547,10.547,0,0,1,5,6,9.863,9.863,0,0,0,4-7,7.369,7.369,0,0,1,4,5s5.19-2,6-7c2,6,8,9,8,9,1.62-4.75,5-6,5-6a10.671,10.671,0,0,0,6,8,12.193,12.193,0,0,1,1.72-6.25c12,12.7,14.15,33.88,14.27,35.19a.28.28,0,0,1,.01.06"/></g><g class="cls-8"><path d="M48.816,52.551a16.4,16.4,0,0,1,3.2,1.785,21.138,21.138,0,0,1,2.737,2.275,21.784,21.784,0,0,1,2.314,2.67,24.338,24.338,0,0,1,1.871,2.97.5.5,0,0,1-.855.516l-.013-.02a23.193,23.193,0,0,0-1.981-2.689,20.409,20.409,0,0,0-2.347-2.341,19.51,19.51,0,0,0-2.676-1.913,14.838,14.838,0,0,0-2.878-1.357l-.056-.018a1,1,0,0,1,.618-1.905Z"/></g><g class="cls-8"><path d="M78.816,54.449a14.838,14.838,0,0,0-2.878,1.357,19.51,19.51,0,0,0-2.676,1.913,20.409,20.409,0,0,0-2.347,2.341,23.193,23.193,0,0,0-1.981,2.689l-.012.018a.5.5,0,0,1-.856-.515,24.338,24.338,0,0,1,1.871-2.97,21.784,21.784,0,0,1,2.314-2.67,21.138,21.138,0,0,1,2.737-2.275,16.4,16.4,0,0,1,3.2-1.785,1,1,0,0,1,.758,1.854l-.068.025Z"/><path d="M52.069,104.656a36.348,36.348,0,0,0,22.862,0,.5.5,0,0,1,.418.908,20.837,20.837,0,0,1-5.724,2.242,27.386,27.386,0,0,1-12.249,0,20.837,20.837,0,0,1-5.724-2.242.5.5,0,0,1-.184-.686A.507.507,0,0,1,52.069,104.656Z"/></g><path class="cls-9" d="M38.8,60,58,67.82C45.52,76.757,34.961,70.054,38.8,60Z"/><path class="cls-10" d="M44.442,66.827l-.055.108a1.371,1.371,0,0,0,.991,1.955,8.684,8.684,0,0,0,1.4.11A12.636,12.636,0,0,0,51,68.21L46.16,66.237A1.359,1.359,0,0,0,44.442,66.827Z"/><path class="cls-9" d="M88.2,60,69,67.82C81.48,76.757,92.039,70.054,88.2,60Z"/><path class="cls-10" d="M82.558,66.827l.055.108a1.371,1.371,0,0,1-.991,1.955,8.684,8.684,0,0,1-1.4.11A12.636,12.636,0,0,1,76,68.21l4.844-1.973A1.359,1.359,0,0,1,82.558,66.827Z"/><ellipse class="cls-9" cx="63.5" cy="93" rx="16" ry="11"/><path class="cls-10" d="M76.455,91c-.25-3.577-1.91-6-12.955-6s-12.705,2.423-12.955,6Z"/><path class="cls-10" d="M50.619,94c.83,3.884,6.385,7,12.881,7s12.052-3.116,12.881-7Z"/></g></g></svg>